<?xml version="1.0" encoding="UTF-8" standalone="no"?>
<!-- Created with Inkscape (http://www.inkscape.org/) -->

<svg
   xmlns:dc="http://purl.org/dc/elements/1.1/"
   xmlns:cc="http://creativecommons.org/ns#"
   xmlns:rdf="http://www.w3.org/1999/02/22-rdf-syntax-ns#"
   xmlns:svg="http://www.w3.org/2000/svg"
   xmlns="http://www.w3.org/2000/svg"
   xmlns:xlink="http://www.w3.org/1999/xlink"
   xmlns:sodipodi="http://sodipodi.sourceforge.net/DTD/sodipodi-0.dtd"
   xmlns:inkscape="http://www.inkscape.org/namespaces/inkscape"
   id="svg2"
   version="1.1"
   inkscape:version="0.91 r13725"
   xml:space="preserve"
   width="500"
   height="500"
   viewBox="0 0 500 500"
   sodipodi:docname="logo-v2.svg"
   inkscape:export-filename="/home/lucas/htdocs/somdomato.com/img/logo.png"
   inkscape:export-xdpi="90"
   inkscape:export-ydpi="90"><metadata
     id="metadata8"><rdf:RDF><cc:Work
         rdf:about=""><dc:format>image/svg+xml</dc:format><dc:type
           rdf:resource="http://purl.org/dc/dcmitype/StillImage" /><dc:title></dc:title></cc:Work></rdf:RDF></metadata><defs
     id="defs6"><clipPath
       clipPathUnits="userSpaceOnUse"
       id="clipPath24"><path
         d="M 0,800 800,800 800,0 0,0 0,800 Z"
         id="path26"
         inkscape:connector-curvature="0" /></clipPath><clipPath
       clipPathUnits="userSpaceOnUse"
       id="clipPath160"><path
         d="M 0,800 800,800 800,0 0,0 0,800 Z"
         id="path162"
         inkscape:connector-curvature="0" /></clipPath><clipPath
       clipPathUnits="userSpaceOnUse"
       id="clipPath224"><path
         d="m 58.2793,163.086 213.0647,0 0,-57.003 -213.0647,0 0,57.003 z"
         id="path226"
         inkscape:connector-curvature="0" /></clipPath><clipPath
       clipPathUnits="userSpaceOnUse"
       id="clipPath260"><path
         d="M 0,800 800,800 800,0 0,0 0,800 Z"
         id="path262"
         inkscape:connector-curvature="0" /></clipPath><clipPath
       clipPathUnits="userSpaceOnUse"
       id="clipPath280"><path
         d="M 0,800 800,800 800,0 0,0 0,800 Z"
         id="path282"
         inkscape:connector-curvature="0" /></clipPath><clipPath
       clipPathUnits="userSpaceOnUse"
       id="clipPath292"><path
         d="m 344.014,239.321 112.154,0 0,-86.382 -112.154,0 0,86.382 z"
         id="path294"
         inkscape:connector-curvature="0" /></clipPath><clipPath
       clipPathUnits="userSpaceOnUse"
       id="clipPath396"><path
         d="M 0,800 800,800 800,0 0,0 0,800 Z"
         id="path398"
         inkscape:connector-curvature="0" /></clipPath><clipPath
       clipPathUnits="userSpaceOnUse"
       id="clipPath420"><path
         d="M 0,800 800,800 800,0 0,0 0,800 Z"
         id="path422"
         inkscape:connector-curvature="0" /></clipPath><clipPath
       clipPathUnits="userSpaceOnUse"
       id="clipPath548"><path
         d="M 0,800 800,800 800,0 0,0 0,800 Z"
         id="path550"
         inkscape:connector-curvature="0" /></clipPath><clipPath
       clipPathUnits="userSpaceOnUse"
       id="clipPath592"><path
         d="M 0,800 800,800 800,0 0,0 0,800 Z"
         id="path594"
         inkscape:connector-curvature="0" /></clipPath><clipPath
       clipPathUnits="userSpaceOnUse"
       id="clipPath700"><path
         d="M 0,800 800,800 800,0 0,0 0,800 Z"
         id="path702"
         inkscape:connector-curvature="0" /></clipPath><clipPath
       clipPathUnits="userSpaceOnUse"
       id="clipPath708"><path
         d="m 569.534,714.618 127.237,0 0,-26.274 -127.237,0 0,26.274 z"
         id="path710"
         inkscape:connector-curvature="0" /></clipPath><clipPath
       clipPathUnits="userSpaceOnUse"
       id="clipPath740"><path
         d="M 0,800 800,800 800,0 0,0 0,800 Z"
         id="path742"
         inkscape:connector-curvature="0" /></clipPath><clipPath
       clipPathUnits="userSpaceOnUse"
       id="clipPath792"><path
         d="M 0,800 800,800 800,0 0,0 0,800 Z"
         id="path794"
         inkscape:connector-curvature="0" /></clipPath><clipPath
       clipPathUnits="userSpaceOnUse"
       id="clipPath872"><path
         d="M 0,800 800,800 800,0 0,0 0,800 Z"
         id="path874"
         inkscape:connector-curvature="0" /></clipPath><clipPath
       clipPathUnits="userSpaceOnUse"
       id="clipPath892"><path
         d="m 101.831,727.671 0,-82.358 c 0,-59.724 63.915,-85.044 63.915,-85.044 l 0,0 c 0,0 63.916,25.32 63.916,85.044 l 0,0 0,82.358 -127.831,0 z"
         id="path894"
         inkscape:connector-curvature="0" /></clipPath><clipPath
       clipPathUnits="userSpaceOnUse"
       id="clipPath908"><path
         d="M 0,800 800,800 800,0 0,0 0,800 Z"
         id="path910"
         inkscape:connector-curvature="0" /></clipPath><clipPath
       clipPathUnits="userSpaceOnUse"
       id="clipPath952"><path
         d="M 0,800 800,800 800,0 0,0 0,800 Z"
         id="path954"
         inkscape:connector-curvature="0" /></clipPath><clipPath
       clipPathUnits="userSpaceOnUse"
       id="clipPath996"><path
         d="M 0,800 800,800 800,0 0,0 0,800 Z"
         id="path998"
         inkscape:connector-curvature="0" /></clipPath><clipPath
       clipPathUnits="userSpaceOnUse"
       id="clipPath1088"><path
         d="M 0,800 800,800 800,0 0,0 0,800 Z"
         id="path1090"
         inkscape:connector-curvature="0" /></clipPath><clipPath
       clipPathUnits="userSpaceOnUse"
       id="clipPath1200"><path
         d="M 0,800 800,800 800,0 0,0 0,800 Z"
         id="path1202"
         inkscape:connector-curvature="0" /></clipPath><clipPath
       clipPathUnits="userSpaceOnUse"
       id="clipPath1248"><path
         d="M 0,800 800,800 800,0 0,0 0,800 Z"
         id="path1250"
         inkscape:connector-curvature="0" /></clipPath></defs><sodipodi:namedview
     pagecolor="#ffffff"
     bordercolor="#666666"
     borderopacity="1"
     objecttolerance="10"
     gridtolerance="10"
     guidetolerance="10"
     inkscape:pageopacity="0"
     inkscape:pageshadow="2"
     inkscape:window-width="1600"
     inkscape:window-height="823"
     id="namedview4"
     showgrid="false"
     inkscape:zoom="1"
     inkscape:cx="117.18386"
     inkscape:cy="267.41314"
     inkscape:window-x="0"
     inkscape:window-y="25"
     inkscape:window-maximized="1"
     inkscape:current-layer="g10" /><g
     id="g10"
     inkscape:groupmode="layer"
     inkscape:label="01"
     transform="matrix(1.25,0,0,-1.25,0,500)"><g
       id="g976"
       transform="matrix(2.1520533,0,0,2.1520417,391.03022,188.83197)"
       style="fill:#2e3436"><path
         d="m 0,0 4.168,5.189 -5.118,6.374 4.144,7.045 -4.873,4.533 2.701,6.106 -6.608,4.836 2.194,7.876 -5.895,3.121 1.016,6.586 -7.622,2.946 0.068,8.189 -6.506,1.482 -0.721,6.62 -8.128,0.884 -2.049,7.916 -6.654,-0.244 -2.406,6.225 -8.094,-1.249 -4.015,7.116 -6.372,-1.956 -3.939,5.384 -7.477,-3.309 -5.74,5.842 -5.651,-3.556 -5.19,4.168 -6.373,-5.119 -7.046,4.145 -4.533,-4.873 -6.106,2.702 -4.835,-6.609 -7.877,2.194 -3.12,-5.896 -6.586,1.017 -2.946,-7.622 -8.189,0.068 -1.483,-6.506 -6.619,-0.72 -0.885,-8.129 -7.916,-2.048 0.244,-6.655 -6.225,-2.406 1.25,-8.094 -7.117,-4.016 1.957,-6.37 -5.384,-3.94 3.309,-7.477 -5.842,-5.739 3.556,-5.653 -4.168,-5.189 5.118,-6.373 -4.144,-7.045 4.873,-4.534 -2.702,-6.106 6.609,-4.835 -2.195,-7.877 5.896,-3.12 -1.016,-6.586 7.621,-2.946 -0.067,-8.189 6.506,-1.483 0.72,-6.62 8.128,-0.884 2.049,-7.916 6.654,0.244 2.406,-6.225 8.094,1.249 4.016,-7.116 6.37,1.957 3.94,-5.385 7.477,3.309 5.74,-5.841 5.652,3.555 5.189,-4.168 6.373,5.119 7.045,-4.145 4.534,4.874 6.106,-2.703 4.835,6.609 7.877,-2.194 3.121,5.896 6.585,-1.017 2.947,7.622 8.189,-0.068 1.482,6.507 6.62,0.72 0.884,8.128 7.916,2.048 -0.243,6.655 6.225,2.406 -1.25,8.094 7.117,4.016 -1.957,6.37 5.383,3.94 -3.308,7.477 5.842,5.74 L 0,0 Z"
         style="fill:#2e3436;fill-opacity:1;fill-rule:nonzero;stroke:none"
         id="path978"
         inkscape:connector-curvature="0" /></g><g
       id="g980"
       transform="matrix(2.1520533,0,0,2.1520417,381.88614,199.99977)"
       style="fill:#555753"><path
         d="m 0,0 c 0,-46.678 -37.84,-84.518 -84.518,-84.518 -46.677,0 -84.517,37.84 -84.517,84.518 0,46.677 37.84,84.517 84.517,84.517 C -37.84,84.517 0,46.677 0,0"
         style="fill:#555753;fill-opacity:1;fill-rule:nonzero;stroke:none"
         id="path982"
         inkscape:connector-curvature="0" /></g><path
       inkscape:connector-curvature="0"
       id="path986"
       style="fill:#2e3436;fill-opacity:1;fill-rule:nonzero;stroke:none"
       d="m 322.95905,77.041168 c -67.90879,-67.9084289 -178.01064,-67.9069009 -245.917905,0 -67.9072671,67.906902 -67.9087951,178.008152 0,245.916582 67.907265,67.9069 178.009115,67.90537 245.916375,-0.002 67.90727,-67.9069 67.9088,-178.00815 0.002,-245.915052" /><text
       transform="scale(0.96436693,-1.0369497)"
       style="font-style:normal;font-variant:normal;font-weight:300;font-stretch:normal;font-size:68.86551666px;line-height:125%;font-family:Oswald;-inkscape-font-specification:'Oswald, Light';text-align:start;writing-mode:lr-tb;text-anchor:start;fill:#ffffff;fill-opacity:1;fill-rule:nonzero;stroke:none"
       id="text988"
       x="72.365776"
       y="-109.76965"
       sodipodi:linespacing="125%"><tspan
         sodipodi:role="line"
         id="tspan990"
         x="72.365776"
         y="-109.76965">somdomato</tspan></text>
<g
       id="g1008"
       transform="matrix(2.1520533,0,0,2.1520417,250.85666,120.75393)"
       style="fill:#555753"><g
         id="g5233"
         transform="translate(0,-11.89568)"
         style="fill:#555753"><g
           style="fill:#555753"
           transform="translate(-23.620105,0.84330243)"
           id="g1000"><path
             inkscape:connector-curvature="0"
             id="path1002"
             style="fill:#555753;fill-opacity:1;fill-rule:nonzero;stroke:none"
             d="m 0,0 2.479,-7.628 8.021,0 -6.489,-4.715 2.478,-7.629 -6.489,4.715 -6.489,-4.715 2.478,7.629 -6.489,4.715 8.021,0 L 0,0 Z" /></g><g
           transform="translate(-47.2402,-9.2935004e-7)"
           id="g1004"
           style="fill:#555753"><path
             inkscape:connector-curvature="0"
             id="path1006"
             style="fill:#555753;fill-opacity:1;fill-rule:nonzero;stroke:none"
             d="m 0,0 1.297,-3.992 4.197,0 -3.395,-2.467 1.297,-3.992 -3.396,2.467 -3.396,-2.467 1.297,3.992 -3.396,2.467 4.198,0 L 0,0 Z" /></g><path
           inkscape:connector-curvature="0"
           id="path1010"
           style="fill:#555753;fill-opacity:1;fill-rule:nonzero;stroke:none"
           d="m 0,0 1.297,-3.992 4.197,0 -3.395,-2.467 1.297,-3.992 -3.396,2.467 -3.396,-2.467 1.297,3.992 -3.395,2.467 4.197,0 L 0,0 Z" /></g></g><text
       transform="scale(1.0000027,-0.9999973)"
       style="font-variant:normal;font-weight:300;font-stretch:normal;font-size:24.23614311px;font-family:Oswald;-inkscape-font-specification:Oswald-Light;writing-mode:lr-tb;fill:#ffffff;fill-opacity:1;fill-rule:nonzero;stroke:none"
       id="text1028"
       x="267.19516"
       y="-236.42975"><tspan
         sodipodi:role="line"
         id="tspan1030"
         x="267.19516"
         y="-236.42975">2012</tspan></text>
<text
       y="-236.42386"
       x="87.491386"
       style="font-variant:normal;font-weight:300;font-stretch:normal;font-size:24.23614311px;font-family:Oswald;-inkscape-font-specification:Oswald-Light;writing-mode:lr-tb;fill:#ffffff;fill-opacity:1;fill-rule:nonzero;stroke:none"
       id="text1028-3"
       transform="scale(1.0000027,-0.9999973)"><tspan
         sodipodi:role="line"
         id="tspan1030-6"
         x="87.491386"
         y="-236.42386">DESDE</tspan></text>
<path
       id="path2995"
       inkscape:connector-curvature="0"
       d="m 187.80277,179.30995 c -0.0442,-0.15799 -0.0775,-0.32154 -0.12337,-0.48077 l 24.62601,0 m 0,0 c -1.39039,10.775 -3.30929,55.79956 -1.43886,60.54972 1.02318,2.59917 5.48246,7.70059 10.31924,11.78848 4.68579,3.95772 9.89526,9.30777 11.55232,11.87305 1.65639,2.56593 5.1527,6.19665 7.77063,8.07676 4.06093,2.91924 6.21053,3.39517 14.63579,3.27461 10.65871,-0.15378 10.21606,0.31504 -1.76789,1.9203 l -7.64732,1.00447 3.90576,5.763 c 4.53821,6.64204 11.80031,11.82867 18.54291,13.22737 l 4.72665,0.96014 -4.27569,0.17434 c -2.33526,0.0882 -7.49417,-1.55315 -11.46992,-3.62377 -3.97568,-2.06994 -7.53852,-3.43326 -7.93477,-3.01274 -0.68928,0.73291 -3.12155,16.15562 -3.70002,23.53128 -0.15127,1.9203 -0.96151,3.95974 -1.80877,4.54028 -0.84789,0.58049 -2.52576,4.27702 -3.74081,8.16339 -1.21579,3.88697 -2.4683,6.809 -2.75578,6.50491 -0.28683,-0.30346 0.89361,-4.89914 2.59086,-10.21531 1.72359,-5.40275 3.40835,-14.80127 3.82262,-21.30412 0.40734,-6.39753 0.59785,-11.42758 0.41082,-11.1754 -3.53029,4.7675 -13.89593,16.22484 -13.89593,15.36725 0,-0.64288 2.6657,-4.80218 5.92163,-9.25513 7.7367,-10.58172 7.79139,-14.36279 0.32988,-22.96393 -6.35464,-7.32099 -18.56786,-18.41674 -23.18848,-21.04226 -1.70421,-0.96917 -4.86801,-3.88979 -7.03081,-6.50563 -2.16069,-2.61372 -4.38092,-4.75846 -4.89151,-4.75846 -0.50847,0 -1.90576,2.35673 -3.12431,5.23923 -1.21783,2.88047 -5.13677,7.75329 -8.71557,10.82628 -5.50455,4.72598 -6.78063,6.71899 -8.1398,12.92188 -0.88393,4.03385 -1.97225,7.33412 -2.42605,7.33412 -0.45302,0 -0.90746,3.77755 -1.02729,8.38224 -0.20219,7.74013 0.043,8.55132 3.33004,10.56446 l 3.57601,2.18283 -3.61688,-0.82989 c -3.47415,-0.76551 -3.61893,-0.57431 -3.61893,4.84641 0,6.1468 0.84378,6.87971 11.18308,9.73455 2.89432,0.79945 6.7426,2.78207 8.55136,4.3664 2.81946,2.46826 2.87424,2.63108 0.41148,1.35293 -4.41074,-2.28814 -5.36534,-1.81848 -4.80977,2.35743 0.42325,3.18109 0.1993,2.99544 -1.1929,-1.04745 -1.44304,-4.19179 -2.48007,-5.0799 -7.56419,-6.28737 -3.25597,-0.77245 -6.63036,-1.85657 -7.48242,-2.44472 -0.95045,-0.65396 -1.85727,-0.054 -2.34292,1.57183 -0.4364,1.45896 -4.01862,5.89188 -7.97632,9.86685 -3.95771,3.97498 -7.19489,8.06012 -7.19489,9.08054 0,1.02039 1.48037,2.88807 3.28912,4.1475 3.69931,2.57354 4.27083,4.58322 1.31486,4.58322 -1.08481,0 -1.97297,-0.75371 -1.97297,-1.65846 0,-0.9061 -1.2026,-2.82152 -2.6733,-4.23475 -2.62552,-2.5237 -2.80776,-2.43016 -9.61957,4.71487 -6.30406,6.6102 -17.37214,12.94399 -22.28243,12.74723 l -10e-4,0 c -0.89637,-0.0365 1.17908,-1.24211 4.60407,-2.66358 3.42426,-1.42088 8.03939,-4.19946 10.27767,-6.19875 l 4.06992,-3.66738 -14.88168,-0.21739 -14.88245,-0.26186 13.81351,-0.82992 c 10.48136,-0.64838 15.08261,-1.57391 19.07565,-3.84198 6.62826,-3.76371 19.74895,-17.94842 21.74829,-23.48694 0.83195,-2.30479 1.81773,-11.93331 2.22023,-21.43437 0.70594,-16.6758 0.64632,-17.23974 -1.76789,-15.80367 -2.96501,1.76444 -12.69814,11.63677 -23.18782,23.48697 -4.15234,4.69128 -9.48101,9.28216 -11.83981,10.21527 -2.35956,0.93316 -6.00204,2.68997 -8.09901,3.88564 -2.09624,1.19502 -3.46651,1.55935 -3.04187,0.82919 0.42467,-0.72875 4.09002,-3.10696 8.13915,-5.2822 4.05052,-2.17521 8.5167,-5.53158 9.94934,-7.46507 2.44122,-3.29539 2.46966,-3.69648 0.41147,-6.11212 -1.20884,-1.41805 -2.63037,-2.57563 -3.16587,-2.57563 -0.53408,0 -2.95739,-2.0249 -5.38477,-4.4973 l -4.39966,-4.496 3.94661,2.61863 c 2.17106,1.41873 5.42841,4.02901 7.27666,5.85028 1.84827,1.82192 3.96879,3.31895 4.68715,3.31895 0.71838,0 4.87907,-4.2431 9.25035,-9.42973 59.74575,-70.87996 31.91512,-63.87282 31.82162,-104.64178 m 78.40016,148.64797 c -0.32335,-0.0455 -0.53412,-1.41664 -0.53412,-4.27911 0,-4.32206 -0.47452,-5.15124 -2.87903,-5.15124 -4.49673,0 -2.03049,-1.44857 9.70264,-5.71936 12.67113,-4.61304 11.97425,-4.44882 10.93511,-2.66293 -0.44753,0.76894 -1.63004,1.39728 -2.63105,1.39728 -4.44263,0 -3.24765,3.5725 3.41178,10.08503 6.86243,6.7079 6.92269,6.77716 1.19224,2.3574 -3.25592,-2.51257 -6.92962,-5.85371 -8.14052,-7.42142 -1.81295,-2.35254 -2.82369,-2.60333 -5.75541,-1.48452 -2.89502,1.10491 -3.62099,2.34908 -3.98679,6.76606 -0.3313,3.99993 -0.90127,6.17099 -1.31485,6.11281 z m -12.58244,-8.1647 c -1.19157,0.003 -2.41009,-0.10084 -3.41251,-0.26115 -2,-0.32154 -0.65606,-0.60194 2.96082,-0.6117 3.61893,-0.0101 5.23649,0.27996 3.61893,0.6117 -0.8105,0.16572 -1.97499,0.25826 -3.16724,0.26115 z"
       style="fill:#ffffff" /><text
       xml:space="preserve"
       style="font-style:normal;font-weight:normal;font-size:32px;line-height:125%;font-family:sans-serif;letter-spacing:0px;word-spacing:0px;fill:#000000;fill-opacity:1;stroke:none;stroke-width:1px;stroke-linecap:butt;stroke-linejoin:miter;stroke-opacity:1"
       id="text5044"
       sodipodi:linespacing="125%"
       transform="matrix(-2.1418184,-0.20963449,-0.20963562,2.1418069,1140.5602,-568.23538)"><textPath
         xlink:href="#path986"
         id="textPath5049"><tspan
   style="font-style:normal;font-variant:normal;font-weight:300;font-stretch:normal;font-size:18px;line-height:125%;font-family:Oswald;-inkscape-font-specification:'Oswald, Light';text-align:start;writing-mode:lr-tb;text-anchor:start;fill:#ffffff"
   id="tspan5046">Rádio Som do Mato</tspan></textPath></text>
</g></svg>