<?xml version="1.0" encoding="utf-8"?>
<!-- Generator: Adobe Illustrator 21.0.0, SVG Export Plug-In . SVG Version: 6.00 Build 0)  -->
<svg version="1.1"
	 id="svg2" inkscape:version="0.48.4 r9939" sodipodi:docname="logo.svg" xmlns:cc="http://creativecommons.org/ns#" xmlns:dc="http://purl.org/dc/elements/1.1/" xmlns:inkscape="http://www.inkscape.org/namespaces/inkscape" xmlns:rdf="http://www.w3.org/1999/02/22-rdf-syntax-ns#" xmlns:sodipodi="http://sodipodi.sourceforge.net/DTD/sodipodi-0.dtd" xmlns:svg="http://www.w3.org/2000/svg"
	 xmlns="http://www.w3.org/2000/svg" xmlns:xlink="http://www.w3.org/1999/xlink" x="0px" y="0px" viewBox="0 0 600 200"
	 style="enable-background:new 0 0 600 200;" xml:space="preserve">
<style type="text/css">
	.st0{fill:#EEEEEC;}
	.st1{font-family:'Harabara';}
	.st2{font-size:50.5513px;}
	.st3{font-size:91.6717px;}
</style>
<sodipodi:namedview  bordercolor="#666666" borderopacity="1" fit-margin-bottom="0" fit-margin-left="0" fit-margin-right="0" fit-margin-top="0" gridtolerance="10" guidetolerance="10" id="namedview4" inkscape:current-layer="g3178" inkscape:cx="75.876146" inkscape:cy="4.1974858" inkscape:pageopacity="0" inkscape:pageshadow="2" inkscape:window-height="837" inkscape:window-maximized="1" inkscape:window-width="1440" inkscape:window-x="-8" inkscape:window-y="-8" inkscape:zoom="2.8284271" objecttolerance="10" pagecolor="#ffffff" showgrid="false">
	</sodipodi:namedview>
<path id="path2995" inkscape:connector-curvature="0" class="st0" d="M116.4,199c-2.8-19.6-6.7-57.2-1.8-69.3
	c1.2-3,6.7-8.7,12.5-13.5c5.7-4.6,12.1-10.7,14.1-13.7c2-3,6.3-7.1,9.5-9.3c5-3.4,7.5-4,17.8-3.8c12.9,0.2,12.5-0.4-2.2-2.2
	l-9.3-1.2l4.8-6.5c5.5-7.3,14.5-13.3,22.6-14.9l5.7-1.2l-5.1-0.2c-2.8-0.2-9.1,1.8-13.9,4.2c-4.8,2.4-9.1,4-9.7,3.4
	c-0.8-0.8-3.8-18.4-4.6-26.9c-0.2-2.2-1.2-4.6-2.2-5.1s-3-5-4.6-9.3c-1.4-4.4-3-7.7-3.4-7.5c-0.4,0.4,1,5.5,3.2,11.7
	s4.2,16.8,4.6,24.4c0.6,7.3,0.8,13.1,0.6,12.9c-4.4-5.5-16.8-18.6-16.8-17.6c0,0.8,3.2,5.5,7.1,10.5c9.3,12.1,9.5,16.4,0.4,26.3
	c-7.7,8.3-22.6,21-28.1,24c-2,1.2-5.9,4.4-8.5,7.5c-2.6,3-5.3,5.3-5.9,5.3c-0.6,0-2.4-2.8-3.8-5.9c-1.4-3.4-6.1-8.9-10.5-12.5
	c-6.7-5.3-8.3-7.7-9.9-14.9c-1-4.6-2.4-8.3-3-8.3c-0.6,0-1.2-4.4-1.2-9.5c-0.2-8.9,0-9.7,4-12.1l4.4-2.6l-4.6,1.2
	c-4.2,0.8-4.4,0.6-4.4-5.5c0-6.9,1-7.9,13.7-11.1c3.6-1,8.1-3.2,10.3-5c3.4-2.8,3.6-3,0.6-1.6c-5.3,2.6-6.5,2-5.9-2.8
	c0.6-3.6,0.2-3.4-1.4,1.2c-1.8,4.8-3,5.7-9.1,7.1c-4,0.8-8.1,2.2-9.1,2.8c-1.2,0.8-2.2,0-2.8-1.8c-0.6-1.6-5-6.7-9.7-11.3
	s-8.7-9.3-8.7-10.3c0-1.2,1.8-3.4,4-4.8c4.6-3,5.1-5.1,1.6-5.1c-1.4,0-2.4,0.8-2.4,2c0,1-1.4,3.2-3.2,4.8c-3.2,3-3.4,2.8-11.7-5.3
	C32.5,7.9,19,0.8,13.1,1l0,0c-1,0,1.6,1.4,5.7,3s9.7,4.8,12.5,7.1l5,4.2L18,15.6L0,15.8l16.8,1C29.5,17.6,35,18.6,40,21.2
	c8.1,4.4,24,20.6,26.3,26.9c1,2.6,2.2,13.7,2.8,24.6c0.8,19,0.8,19.8-2.2,18c-3.6-2-15.4-13.3-28.1-26.9c-5-5.3-11.5-10.7-14.5-11.7
	c-2.8-1-7.3-3.2-9.9-4.4c-2.6-1.4-4.2-1.8-3.8-1c0.6,0.8,5,3.6,9.9,5.9c5,2.6,10.3,6.3,12.1,8.5c3,3.8,3,4.2,0.6,6.9
	c-1.4,1.6-3.2,3-3.8,3c-0.6,0-3.6,2.4-6.5,5.1l-5.3,5.1l4.8-3c2.6-1.6,6.5-4.6,8.9-6.7c2.2-2.2,4.8-3.8,5.7-3.8c1,0,5.9,5,11.3,10.7
	C85.1,120.2,94.7,143,93.1,157c0.4-3.4-8.5,39.6-6.3,41.6 M86.7,198.4c0,0.2,0,0.4-0.2,0.6h29.9 M182,28.5c-0.4,0-0.6,1.6-0.6,5
	c0,5-0.6,5.9-3.6,5.9c-5.5,0-2.4,1.6,11.7,6.5c15.4,5.3,14.5,5.1,13.3,3c-0.6-0.8-2-1.6-3.2-1.6c-5.3,0-4-4.2,4.2-11.5
	c8.3-7.7,8.3-7.7,1.4-2.8c-4,3-8.5,6.7-9.9,8.5c-2.2,2.8-3.4,3-6.9,1.8s-4.4-2.8-4.8-7.7C183.2,30.9,182.4,28.5,182,28.5z
	 M166.7,37.8c-1.4,0-3,0.2-4.2,0.4c-2.4,0.4-0.8,0.6,3.6,0.8c4.4,0,6.3-0.4,4.4-0.8C169.5,38,168.1,37.8,166.7,37.8L166.7,37.8z"/>
<text transform="matrix(1 0 0 1 152.0547 128.9102)" class="st0 st1 st2">Rádio</text>
<text transform="matrix(1 0 0 1 121.0957 182.4463)" class="st0 st1 st3">som </text>
<text transform="matrix(1 0 0 1 303.7256 182.4463)" class="st0 st1 st3">do </text>
<text transform="matrix(1 0 0 1 414.9102 182.4463)" class="st0 st1 st3">mato</text>
</svg>
