<?xml version="1.0" encoding="utf-8"?>
<!-- Generator: Adobe Illustrator 21.0.0, SVG Export Plug-In . SVG Version: 6.00 Build 0)  -->
<svg version="1.1"
	 id="svg2" inkscape:export-filename="/home/lucas/img/sdm/logo.png" inkscape:export-xdpi="90" inkscape:export-ydpi="90" inkscape:version="0.91 r13725" sodipodi:docname="logotipo.svg" xmlns:cc="http://creativecommons.org/ns#" xmlns:dc="http://purl.org/dc/elements/1.1/" xmlns:inkscape="http://www.inkscape.org/namespaces/inkscape" xmlns:rdf="http://www.w3.org/1999/02/22-rdf-syntax-ns#" xmlns:sodipodi="http://sodipodi.sourceforge.net/DTD/sodipodi-0.dtd" xmlns:svg="http://www.w3.org/2000/svg"
	 xmlns="http://www.w3.org/2000/svg" xmlns:xlink="http://www.w3.org/1999/xlink" x="0px" y="0px" viewBox="0 0 250 250"
	 style="enable-background:new 0 0 250 250;" xml:space="preserve">
<style type="text/css">
	.st0{fill:#FFFFFF;}
</style>
<sodipodi:namedview  bordercolor="#666666" borderopacity="1" fit-margin-bottom="0" fit-margin-left="0" fit-margin-right="0" fit-margin-top="0" gridtolerance="10" guidetolerance="10" id="namedview4" inkscape:current-layer="g3178" inkscape:cx="-319.08677" inkscape:cy="48.1094" inkscape:pageopacity="0" inkscape:pageshadow="2" inkscape:window-height="824" inkscape:window-maximized="1" inkscape:window-width="1598" inkscape:window-x="0" inkscape:window-y="24" inkscape:zoom="1" objecttolerance="10" pagecolor="#ffffff" showgrid="false">
	</sodipodi:namedview>
<g id="g3178" transform="translate(148.25971,-109.06441)">
	<path id="path2995" inkscape:connector-curvature="0" class="st0" d="M-45.1,358.4c-0.1,0.2-0.1,0.5-0.2,0.7h35.5 M-9.7,359.1
		c-2-15.6-4.8-80.5-2.1-87.4c1.5-3.8,7.9-11.1,14.9-17c6.8-5.7,14.3-13.4,16.7-17.1c2.4-3.7,7.4-8.9,11.2-11.7
		c5.9-4.2,9-4.9,21.1-4.7c15.4,0.2,14.7-0.5-2.6-2.8l-11-1.4l5.6-8.3c6.6-9.6,17-17.1,26.8-19.1l6.8-1.4l-6.2-0.3
		c-3.4-0.1-10.8,2.2-16.6,5.2c-5.7,3-10.9,5-11.5,4.3c-1-1.1-4.5-23.3-5.3-34c-0.2-2.8-1.4-5.7-2.6-6.6c-1.2-0.8-3.6-6.2-5.4-11.8
		c-1.8-5.6-3.6-9.8-4-9.4c-0.4,0.4,1.3,7.1,3.7,14.7c2.5,7.8,4.9,21.4,5.5,30.8c0.6,9.2,0.9,16.5,0.6,16.1
		C31,190.5,16,173.9,16,175.2c0,0.9,3.8,6.9,8.5,13.4c11.2,15.3,11.2,20.7,0.5,33.1c-9.2,10.6-26.8,26.6-33.5,30.4
		c-2.5,1.4-7,5.6-10.1,9.4c-3.1,3.8-6.3,6.9-7.1,6.9c-0.7,0-2.8-3.4-4.5-7.6c-1.8-4.2-7.4-11.2-12.6-15.6
		c-7.9-6.8-9.8-9.7-11.7-18.7c-1.3-5.8-2.8-10.6-3.5-10.6c-0.7,0-1.3-5.5-1.5-12.1c-0.3-11.2,0.1-12.3,4.8-15.3l5.2-3.2l-5.2,1.2
		c-5,1.1-5.2,0.8-5.2-7c0-8.9,1.2-9.9,16.1-14.1c4.2-1.2,9.7-4,12.3-6.3c4.1-3.6,4.1-3.8,0.6-2c-6.4,3.3-7.7,2.6-6.9-3.4
		c0.6-4.6,0.3-4.3-1.7,1.5c-2.1,6.1-3.6,7.3-10.9,9.1c-4.7,1.1-9.6,2.7-10.8,3.5c-1.4,0.9-2.7,0.1-3.4-2.3
		c-0.6-2.1-5.8-8.5-11.5-14.2s-10.4-11.6-10.4-13.1c0-1.5,2.1-4.2,4.7-6c5.3-3.7,6.2-6.6,1.9-6.6c-1.6,0-2.8,1.1-2.8,2.4
		c0,1.3-1.7,4.1-3.9,6.1c-3.8,3.6-4.1,3.5-13.9-6.8c-9.1-9.5-25.1-18.7-32.2-18.4h0c-1.3,0.1,1.7,1.8,6.6,3.8
		c4.9,2.1,11.6,6.1,14.8,8.9l5.9,5.3l-21.5,0.3l-21.5,0.4l19.9,1.2c15.1,0.9,21.8,2.3,27.5,5.5c9.6,5.4,28.5,25.9,31.4,33.9
		c1.2,3.3,2.6,17.2,3.2,30.9c1,24.1,0.9,24.9-2.6,22.8c-4.3-2.5-18.3-16.8-33.5-33.9c-6-6.8-13.7-13.4-17.1-14.7
		c-3.4-1.3-8.7-3.9-11.7-5.6c-3-1.7-5-2.3-4.4-1.2c0.6,1.1,5.9,4.5,11.7,7.6c5.8,3.1,12.3,8,14.4,10.8c3.5,4.8,3.6,5.3,0.6,8.8
		c-1.7,2-3.8,3.7-4.6,3.7c-0.8,0-4.3,2.9-7.8,6.5l-6.4,6.5l5.7-3.8c3.1-2,7.8-5.8,10.5-8.4c2.7-2.6,5.7-4.8,6.8-4.8s7,6.1,13.4,13.6
		C-4.8,309.6-45,299.5-45.1,358.4 M68.1,143.8c-0.5,0.1-0.8,2-0.8,6.2c0,6.2-0.7,7.4-4.2,7.4c-6.5,0-2.9,2.1,14,8.3
		c18.3,6.7,17.3,6.4,15.8,3.8c-0.6-1.1-2.4-2-3.8-2c-6.4,0-4.7-5.2,4.9-14.6c9.9-9.7,10-9.8,1.7-3.4c-4.7,3.6-10,8.4-11.8,10.7
		c-2.6,3.4-4.1,3.8-8.3,2.1c-4.2-1.6-5.2-3.4-5.8-9.8C69.5,146.8,68.7,143.7,68.1,143.8z M49.9,155.6c-1.7,0-3.5,0.1-4.9,0.4
		c-2.9,0.5-0.9,0.9,4.3,0.9c5.2,0,7.6-0.4,5.2-0.9C53.3,155.7,51.6,155.6,49.9,155.6z"/>
</g>
</svg>
